<svg width="70" height="70" viewBox="0 0 70 70" fill="none" xmlns="http://www.w3.org/2000/svg">
<g clip-path="url(#clip0_1_8692)">
<path d="M17.2748 12.7221L14.5897 9.3515C13.8119 8.37152 14.0316 6.94331 15.0599 6.2314C20.887 2.19725 27.8831 0 35.0022 0C42.1213 0 49.1173 2.19725 54.94 6.2314C55.9683 6.94331 56.1925 8.37152 55.4102 9.3515L52.7252 12.7221C52.0265 13.5966 50.7697 13.7987 49.8468 13.1703C45.4699 10.1777 40.3767 8.60443 35.0022 8.60443C29.6277 8.60443 24.5345 10.1777 20.1576 13.1703C19.2347 13.8031 17.9779 13.5966 17.2792 12.7221H17.2748Z" fill="white"/>
<path d="M9.3515 55.4102C8.37152 56.1881 6.94331 55.9683 6.2314 54.94C2.19725 49.1129 0 42.1169 0 35.0022C0 28.4588 1.78856 22.1614 5.18991 16.6507C5.84469 15.5917 7.25532 15.3016 8.27045 16.0223L11.7861 18.5228C12.7001 19.1732 12.9638 20.4212 12.3837 21.3836C9.9052 25.4837 8.60443 30.1506 8.60443 35.0022C8.60443 40.3766 10.1777 45.4699 13.1703 49.8468C13.8031 50.7696 13.5966 52.0265 12.7221 52.7252L9.3515 55.4102Z" fill="white"/>
<path d="M35.0022 70C28.4588 70 22.1614 68.2114 16.6507 64.8101C15.5917 64.1553 15.3016 62.7447 16.0223 61.7295L18.5228 58.2139C19.1732 57.2999 20.4212 57.0362 21.3836 57.6163C25.4837 60.0948 30.1506 61.3956 35.0022 61.3956C39.8537 61.3956 44.5207 60.0948 48.6163 57.6163C49.5787 57.0362 50.8268 57.2955 51.4771 58.2139L53.9776 61.7295C54.6983 62.7447 54.4127 64.1553 53.3492 64.8101C47.8385 68.2114 41.5412 70 34.9978 70H35.0022Z" fill="white"/>
<path d="M60.6485 55.4102L57.278 52.7252C56.4034 52.0265 56.2013 50.7696 56.8297 49.8468C59.8224 45.4699 61.3956 40.3766 61.3956 35.0022C61.3956 30.155 60.0948 25.4837 57.6163 21.3836C57.0363 20.4212 57.2955 19.1732 58.214 18.5228L61.7296 16.0223C62.7447 15.3016 64.1553 15.5917 64.8101 16.6507C68.2115 22.1614 70 28.4588 70 35.0022C70 42.1213 67.8028 49.1173 63.7686 54.94C63.0567 55.9683 61.6285 56.1924 60.6485 55.4102Z" fill="white"/>
<path d="M35.0022 52.545C44.6908 52.545 52.545 44.6908 52.545 35.0022C52.545 25.3136 44.6908 17.4594 35.0022 17.4594C25.3136 17.4594 17.4594 25.3136 17.4594 35.0022C17.4594 44.6908 25.3136 52.545 35.0022 52.545Z" fill="#0EA59D"/>
</g>
<defs>
<clipPath id="clip0_1_8692">
<rect width="70" height="70" fill="white"/>
</clipPath>
</defs>
</svg>
