<svg width="215" height="111" viewBox="0 0 215 111" fill="none" xmlns="http://www.w3.org/2000/svg">
<g clip-path="url(#clip0_1_8711)">
<path d="M13.9342 40.4234L11.8915 37.8591C11.2997 37.1135 11.4669 36.0269 12.2492 35.4853C16.6824 32.4162 22.005 30.7445 27.4211 30.7445C32.8373 30.7445 38.1599 32.4162 42.5897 35.4853C43.3721 36.0269 43.5426 37.1135 42.9475 37.8591L40.9047 40.4234C40.3731 41.0887 39.4169 41.2425 38.7149 40.7644C35.3849 38.4876 31.51 37.2907 27.4211 37.2907C23.3323 37.2907 19.4574 38.4876 16.1274 40.7644C15.4254 41.2458 14.4692 41.0887 13.9376 40.4234H13.9342Z" fill="#131316"/>
<path d="M7.90625 72.9003C7.16069 73.4921 6.07412 73.3249 5.5325 72.5426C2.46334 68.1093 0.791687 62.7868 0.791687 57.374C0.791687 52.3958 2.15241 47.6048 4.74014 43.4123C5.23829 42.6066 6.31149 42.3859 7.0838 42.9342L9.75845 44.8366C10.4539 45.3314 10.6545 46.2809 10.2131 47.0131C8.32751 50.1324 7.33789 53.683 7.33789 57.374C7.33789 61.4628 8.53479 65.3377 10.8116 68.6677C11.293 69.3698 11.1359 70.326 10.4706 70.8575L7.90625 72.9003Z" fill="#131316"/>
<path d="M27.4212 84.0002C22.443 84.0002 17.652 82.6395 13.4595 80.0517C12.6538 79.5536 12.4331 78.4804 12.9814 77.7081L14.8837 75.0334C15.3786 74.338 16.3281 74.1374 17.0602 74.5787C20.1795 76.4644 23.7301 77.454 27.4212 77.454C31.1122 77.454 34.6628 76.4644 37.7787 74.5787C38.5109 74.1374 39.4604 74.3347 39.9552 75.0334L41.8576 77.7081C42.4059 78.4804 42.1886 79.5536 41.3795 80.0517C37.187 82.6395 32.396 84.0002 27.4178 84.0002H27.4212Z" fill="#131316"/>
<path d="M46.9328 72.9003L44.3685 70.8575C43.7032 70.326 43.5494 69.3698 44.0275 68.6677C46.3043 65.3377 47.5012 61.4628 47.5012 57.374C47.5012 53.6863 46.5115 50.1324 44.6259 47.0131C44.1846 46.2809 44.3819 45.3314 45.0806 44.8366L47.7553 42.9342C48.5276 42.3859 49.6008 42.6066 50.0989 43.4123C52.6866 47.6048 54.0474 52.3958 54.0474 57.374C54.0474 62.7901 52.3757 68.1127 49.3065 72.5426C48.7649 73.3249 47.6784 73.4954 46.9328 72.9003Z" fill="#131316"/>
<path d="M27.4211 70.7206C34.7921 70.7206 40.7676 64.7451 40.7676 57.3741C40.7676 50.003 34.7921 44.0276 27.4211 44.0276C20.05 44.0276 14.0746 50.003 14.0746 57.3741C14.0746 64.7451 20.05 70.7206 27.4211 70.7206Z" fill="#0EA59D"/>
<path d="M162.872 44.0909H161.16C157.376 44.0909 153.885 45.3613 151.087 47.501V45.6656C151.087 44.7629 150.355 44.0273 149.449 44.0273H146.176C145.273 44.0273 144.537 44.7595 144.537 45.6656V75.7554C144.537 76.6581 145.27 77.3936 146.176 77.3936H149.449C150.351 77.3936 151.087 76.6614 151.087 75.7554V60.7105C151.087 55.1572 155.604 50.6371 161.16 50.6371H162.872C163.775 50.6371 164.51 49.9049 164.51 48.9988V45.7257C164.51 44.8231 163.778 44.0875 162.872 44.0875V44.0909Z" fill="#131316"/>
<path d="M124.407 77.3266C115.243 77.3266 107.788 69.871 107.788 60.707C107.788 51.543 115.243 44.0874 124.407 44.0874C133.571 44.0874 141.027 51.543 141.027 60.707C141.027 69.871 133.571 77.3266 124.407 77.3266ZM124.407 50.6369C118.854 50.6369 114.334 55.1538 114.334 60.7103C114.334 66.2669 118.851 70.7837 124.407 70.7837C129.964 70.7837 134.481 66.2669 134.481 60.7103C134.481 55.1538 129.964 50.6369 124.407 50.6369Z" fill="#131316"/>
<path d="M199.418 63.9837C200.25 63.9837 200.956 63.3585 201.046 62.5294C201.113 61.9309 201.146 61.3258 201.146 60.7106C201.146 51.3293 193.333 43.7366 183.871 44.1044C175.246 44.4387 168.255 51.4296 167.924 60.052C167.556 69.5135 175.149 77.3268 184.53 77.3268C190.28 77.3268 195.359 74.3881 198.345 69.9381C199.073 68.8482 198.298 67.3838 196.987 67.3838H192.768C192.33 67.3838 191.912 67.5644 191.601 67.872C189.782 69.6673 187.285 70.7806 184.533 70.7806C180.127 70.7806 176.372 67.9321 175.012 63.9837H199.428H199.418ZM184.527 50.6372C188.933 50.6372 192.688 53.4857 194.048 57.4341H175.002C176.362 53.4824 180.117 50.6372 184.523 50.6372H184.527Z" fill="#131316"/>
<path d="M100.573 68.925C102.896 65.6619 104.267 61.6734 104.267 57.3705C104.267 46.3677 95.3138 37.4143 84.311 37.4143C73.3081 37.4143 64.3547 46.3677 64.3547 57.3705C64.3547 68.3734 73.3081 77.3267 84.311 77.3267C88.6405 77.3267 92.6492 75.9426 95.9223 73.5923C96.601 74.5117 97.1125 75.4244 97.3699 76.2703C97.5772 76.9523 98.2158 77.4103 98.9279 77.4103H102.291C103.321 77.4103 104.103 76.4709 103.899 75.4612C103.421 73.1075 102.134 70.8842 100.569 68.925H100.573ZM70.9009 57.3705C70.9009 49.9785 76.9156 43.9639 84.3076 43.9639C91.6997 43.9639 97.7143 49.9785 97.7143 57.3705C97.7143 59.8613 97.0289 62.1916 95.842 64.1909C94.8792 63.3918 93.9932 62.7299 93.2944 62.235C92.5288 61.6934 91.4656 61.9041 90.9641 62.6998L89.2189 65.4714C88.7576 66.2035 88.9448 67.1698 89.6502 67.6746C90.1617 68.039 90.6867 68.4369 91.2116 68.8581C89.1922 70.0784 86.8285 70.7805 84.3009 70.7805C76.9089 70.7805 70.8942 64.7659 70.8942 57.3739L70.9009 57.3705Z" fill="#131316"/>
</g>
<defs>
<clipPath id="clip0_1_8711">
<rect width="200.351" height="53.2556" fill="white" transform="translate(0.791687 30.7445)"/>
</clipPath>
</defs>
</svg>
